<svg fill="#1788ae" xmlns="http://www.w3.org/2000/svg" viewBox="0 0 50 50" width="70px" height="70px">
                <path
                d="M18.832,8.333l8.25,17.913l1.796,3.901l1.83-3.885l2.414-5.127l0.395-0.839l-0.385-0.844l-3.847-8.422l4.324-1.98L47.454,40	h-4.887l-6.013-13.093l-1.815-3.951l-1.819,3.949l-2.384,5.175l-0.387,0.839l0.389,0.839L33.431,40h-5.809l-4.925-11.074	l-1.813-4.077l-1.837,4.067C12.682,43.009,8.266,43.009,5.893,43.009c-0.188,0-0.371-0.002-0.549-0.005	C5.16,43.002,4.98,43,4.806,43c-1.053,0-1.858-0.233-2.45-0.521l2.562-4.418c0.197,0.013,0.419,0.022,0.662,0.022	c0.52,0,1.027-0.041,1.549-0.125c5.295-0.854,8.954-8.655,11.14-13.316c0.33-0.703,0.615-1.31,0.83-1.726l0.447-0.861l-0.399-0.884	l-4.844-10.735L18.832,8.333 M19.304,6.015c-0.147,0-0.297,0.031-0.439,0.097l-6.301,2.927c-0.5,0.232-0.72,0.811-0.497,1.306	l5.256,11.649c-1.54,2.966-5.5,13.181-10.514,13.989c-0.465,0.075-0.875,0.1-1.231,0.1c-0.458,0-0.828-0.041-1.117-0.067	C4.431,36.013,4.4,36.012,4.37,36.012c-0.359,0-0.688,0.191-0.868,0.504l-3.366,5.805c-0.247,0.426-0.151,0.97,0.24,1.273	C1.135,44.183,2.587,45,4.806,45c0.342,0,0.704,0.009,1.088,0.009c3.395,0,8.413-0.737,14.976-15.27l5.188,11.664	C26.221,41.766,26.588,42,26.994,42h7.982c0.743,0,1.238-0.749,0.933-1.411l-3.556-7.672l2.384-5.175l6.277,13.667	C41.178,41.768,41.544,42,41.947,42h7.028c0.738,0,1.233-0.74,0.938-1.401L35.031,7.332c-0.168-0.376-0.545-0.6-0.938-0.6	c-0.145,0-0.293,0.03-0.434,0.095l-6.114,2.799c-0.506,0.232-0.728,0.816-0.5,1.314l4.267,9.342l-2.414,5.127L20.238,6.604	C20.067,6.234,19.694,6.015,19.304,6.015L19.304,6.015z" />
</svg>